HIERARCHY
ROOT Hips
{
	OFFSET 0.00000 0.00000 0.00000
	CHANNELS 6 Xposition Yposition Zposition Zrotation Yrotation Xrotation 
	JOINT LHipJoint
	{
		OFFSET 0 0 0
		CHANNELS 3 Zrotation Yrotation Xrotation
		JOINT LeftHip
		{
			OFFSET 1.98141 -1.79044 0.80905
			CHANNELS 3 Zrotation Yrotation Xrotation
			JOINT LeftKnee
			{
				OFFSET 2.48669 -6.83213 0.00000
				CHANNELS 3 Zrotation Yrotation Xrotation
				JOINT LeftAnkle
				{
					OFFSET 2.68940 -7.38907 0.00000
					CHANNELS 3 Zrotation Yrotation Xrotation
					JOINT LeftToe
					{
						OFFSET 0.12857 -0.35324 2.34549
						CHANNELS 3 Zrotation Yrotation Xrotation
						End Site
						{
							OFFSET 0.00000 -0.00000 1.19593
						}
					}
				}
			}
		}
	}
	JOINT RHipJoint
	{
		OFFSET 0 0 0
		CHANNELS 3 Zrotation Yrotation Xrotation
		JOINT RightHip
		{
			OFFSET -1.80120 -1.79044 0.80905
			CHANNELS 3 Zrotation Yrotation Xrotation
			JOINT RightKnee
			{
				OFFSET -2.77667 -7.62884 0.00000
				CHANNELS 3 Zrotation Yrotation Xrotation
				JOINT RightAnkle
				{
					OFFSET -2.72618 -7.49012 0.00000
					CHANNELS 3 Zrotation Yrotation Xrotation
					JOINT RightToe
					{
						OFFSET -0.15954 -0.43820 2.14670
						CHANNELS 3 Zrotation Yrotation Xrotation
						End Site
						{
							OFFSET -0.00000 -0.00000 1.10438
						}
					}
				}
			}
		}
	}
	JOINT lowerback
	{
		OFFSET 0 0 0
		CHANNELS 3 Zrotation Yrotation Xrotation
		JOINT Chest
		{
			OFFSET -0.00825 2.03905 -0.05153
			CHANNELS 3 Zrotation Yrotation Xrotation
			JOINT Chest2
			{
				OFFSET 0.01521 2.04267 0.00496
				CHANNELS 3 Zrotation Yrotation Xrotation
				JOINT lowerneck
				{
					OFFSET 0 0 0
					CHANNELS 3 Zrotation Yrotation Xrotation
					JOINT Neck
					{
						OFFSET 0.04513 1.36240 0.17993
						CHANNELS 3 Zrotation Yrotation Xrotation
						JOINT Head
						{
							OFFSET -0.04116 1.35857 0.01300
							CHANNELS 3 Zrotation Yrotation Xrotation
							End Site
							{
								OFFSET -0.01884 1.44433 -0.01572
							}
						}
					}
				}
				JOINT LeftCollar
				{
					OFFSET 0 0 0
					CHANNELS 3 Zrotation Yrotation Xrotation
					JOINT LeftShoulder
					{
						OFFSET 2.95523 0.86449 0.36905
CHANNELS 3 Zrotation Xrotation Yrotation
						JOINT LeftElbow
						{
OFFSET 0 -5.828450 -0.000000
CHANNELS 3 Zrotation Xrotation Yrotation
							JOINT LeftWrist
							{
OFFSET 0 -3.496910 0.000000
CHANNELS 3 Zrotation Xrotation Yrotation
								JOINT lhand
								{
									OFFSET 0 0 0
CHANNELS 3 Zrotation Xrotation Yrotation
									JOINT LFingers
									{
OFFSET 0 -0.675000 0.000000
CHANNELS 3 Zrotation Xrotation Yrotation
										End Site
										{
OFFSET 0 -0.544200 0.000000
										}
									}
								}
								JOINT LThumb
								{
OFFSET 0 0.000000 0.000000
CHANNELS 3 Zrotation Xrotation Yrotation
									End Site
									{
OFFSET 0 -0.552510 0.552510
									}
								}
							}
						}
					}
				}
				JOINT RightCollar
				{
					OFFSET 0 0 0
					CHANNELS 3 Zrotation Yrotation Xrotation
					JOINT RightShoulder
					{
						OFFSET -3.41586 0.85389 0.25405
CHANNELS 3 Zrotation Xrotation Yrotation
						JOINT RightElbow
						{
OFFSET 0 -5.458590 0.000000
CHANNELS 3 Zrotation Xrotation Yrotation
							JOINT RightWrist
							{
OFFSET 0 -3.584910 0.000000
CHANNELS 3 Zrotation Xrotation Yrotation
								JOINT rhand
								{
									OFFSET 0 0 0
CHANNELS 3 Zrotation Xrotation Yrotation
									JOINT RFingers
									{
OFFSET 0 -0.683730 0.000000
CHANNELS 3 Zrotation Xrotation Yrotation
										End Site
										{
OFFSET 0 -0.551240 0.000000
										}
									}
								}
								JOINT RThumb
								{
OFFSET 0 0.000000 0.000000
CHANNELS 3 Zrotation Xrotation Yrotation
									End Site
									{
OFFSET 0 -0.559660 0.559660
									}
								}
							}
						}
					}
				}
			}
		}
	}
}
MOTION
Frames: 8
Frame Time: 0.008333333333333333
1.344856 17.351864 7.166352 2.532305 -143.580588 -9.353797 0.000000 0.000000 0.000000 -14.447853 -3.356053 -6.259288 4.064318 12.245444 36.605785 0.761927 2.609974 -17.636429 0.909389 -6.067018 -16.981710 0.000000 0.000000 0.000000 24.741791 11.156115 -4.426684 -6.815901 -15.174886 48.174573 -1.563455 15.607045 -23.400266 -2.155679 9.176231 -26.353323 0.688525 0.539859 13.911287 0.046689 0.746013 0.545130 -0.483753 0.305008 -7.225999 1.807226 -0.654685 -3.410673 -0.493742 -1.064888 8.317466 -0.518710 -0.536285 3.253634 0.000000 0.000000 0.000000 25.970132 -5.217376 -40.959708 95.166266 -59.888221 64.472264 -149.381128 -34.888226 66.452674 0.000000 0.000000 0.000000 -7.125000 0.000000 0.000000 152.888035 51.341270 4.507473 0.000000 0.000000 0.000000 -20.265527 6.203021 39.769909 -44.078078 -50.307706 -21.527235 -36.784009 -34.634175 -56.078874 0.000000 0.000000 0.000000 7.125000 0.000000 0.000000 5.636233 -31.495832 7.772324
1.164498 17.355594 7.216352 2.351015 -142.883902 -9.203077 0.000000 0.000000 0.000000 -15.212795 -3.172722 -5.668274 3.846931 11.953607 35.568514 0.784031 1.691043 -17.420367 0.661644 -5.197294 -14.473258 0.000000 0.000000 0.000000 24.046202 10.832518 -4.057304 -6.811476 -15.171028 48.157585 -2.132761 12.046911 -26.371945 -4.843236 13.163067 -40.057057 0.515865 0.569246 14.227696 0.029518 0.757565 0.508696 -0.410232 0.314666 -7.444442 0.667517 -0.936709 -3.587779 0.358719 -1.466000 8.970005 -0.063404 -0.743619 3.522011 0.000000 0.000000 0.000000 21.744989 -3.179484 -44.358042 81.683217 -59.708306 52.806170 -171.734836 -33.831688 66.360918 0.000000 0.000000 0.000000 -7.125000 0.000000 0.000000 154.368220 51.516009 4.337185 0.000000 0.000000 0.000000 -19.766692 6.682490 40.225044 -41.611528 -48.994545 -19.647334 -37.167443 -34.274069 -55.684901 0.000000 0.000000 0.000000 7.125000 0.000000 0.000000 5.311510 -31.287278 7.316001
0.976731 17.384618 7.264084 2.438522 -142.487736 -9.020002 0.000000 0.000000 0.000000 -15.628034 -2.257317 -5.367620 3.593382 11.598299 34.325883 0.761621 0.891987 -16.835339 0.829874 -5.810613 -16.236266 0.000000 0.000000 0.000000 23.698039 11.146769 -3.796468 -6.790936 -15.153320 48.079184 -2.280384 11.324578 -27.223992 -5.006478 13.262204 -40.585705 0.231566 0.779930 13.983832 -0.057210 0.984273 0.558650 -0.383669 0.434072 -7.255502 1.618561 -1.209334 -2.923453 -0.189776 -1.844503 8.805934 -0.416041 -0.926667 3.322732 0.000000 0.000000 0.000000 19.539222 -0.601664 -47.464058 68.674844 -58.150122 41.653243 -172.860014 -30.779004 67.687767 0.000000 0.000000 0.000000 -7.125000 0.000000 0.000000 154.376779 50.291366 3.547634 0.000000 0.000000 0.000000 -18.915483 7.080456 40.572536 -39.646677 -47.856802 -18.177497 -33.071442 -30.675853 -57.610689 0.000000 0.000000 0.000000 7.125000 0.000000 0.000000 7.661839 -31.624189 10.596283
0.807185 17.407521 7.318468 1.948490 -141.977010 -8.289905 0.000000 0.000000 0.000000 -16.596004 -2.091420 -5.086089 3.357499 11.252022 33.135162 0.751843 0.114064 -16.432001 0.746005 -5.506988 -15.362964 0.000000 0.000000 0.000000 22.446082 10.579446 -4.339182 -6.869482 -15.220956 48.378792 -1.638245 15.304498 -23.809951 -1.913304 8.592395 -24.586311 -0.617903 1.153961 13.883701 -0.289549 1.327995 0.554518 -0.216607 0.625921 -7.215773 0.779271 -1.488522 -3.442440 0.687198 -2.282946 9.649130 -0.012546 -1.140025 3.734270 0.000000 0.000000 0.000000 17.175463 0.716944 -48.590476 53.309830 -54.171946 28.858072 -175.200640 -28.665574 71.366817 0.000000 0.000000 0.000000 -7.125000 0.000000 0.000000 155.028375 46.883207 1.228656 0.000000 0.000000 0.000000 -17.962674 7.613447 40.143815 -38.095797 -46.899294 -17.035852 -35.346347 -31.841216 -57.075304 0.000000 0.000000 0.000000 7.125000 0.000000 0.000000 6.617455 -31.878392 9.149057
0.645613 17.452227 7.376996 2.238021 -141.897107 -7.891211 0.000000 0.000000 0.000000 -16.994510 -2.125771 -5.060308 3.185476 10.989252 32.243636 0.719223 0.786315 -16.331702 1.100054 -6.630284 -18.636905 0.000000 0.000000 0.000000 21.751974 10.097792 -5.755817 -7.099527 -15.414890 49.249226 -1.763389 12.810252 -24.179739 -4.136269 12.102514 -36.424859 -1.121063 1.485084 13.638158 -0.164696 1.703095 0.561679 0.131177 0.828308 -7.090508 0.279096 -1.720652 -3.038990 0.718717 -2.567476 9.663370 0.077184 -1.301565 3.667979 0.000000 0.000000 0.000000 15.667896 2.260108 -48.989503 41.642219 -48.951171 19.688685 -53.756058 -25.282664 68.523999 0.000000 0.000000 0.000000 -7.125000 0.000000 0.000000 152.373015 49.115916 2.883774 0.000000 0.000000 0.000000 -18.216629 7.132444 41.217359 -36.562586 -45.894967 -15.925515 -33.324333 -30.818494 -57.739145 0.000000 0.000000 0.000000 7.125000 0.000000 0.000000 7.632487 -31.814690 10.563173
0.502477 17.493240 7.441247 3.291314 -141.488426 -8.229702 0.000000 0.000000 0.000000 -16.681903 -2.726890 -4.783415 3.088972 10.837721 31.734602 0.758648 -0.138417 -16.419048 0.626002 -5.033211 -14.009783 0.000000 0.000000 0.000000 21.500836 8.534802 -7.451598 -7.484368 -15.726214 50.682763 -2.059388 5.606602 -25.958569 -8.854494 16.709088 -55.579284 -0.875520 1.582613 13.917979 0.041417 1.878172 0.636392 0.170736 0.906435 -7.168533 0.497072 -1.851278 -2.902871 -0.079163 -2.682713 9.723428 -0.225859 -1.383903 3.646666 0.000000 0.000000 0.000000 14.144449 2.882289 -47.421001 31.136958 -41.793634 12.180357 -172.611264 -32.127460 65.079579 0.000000 0.000000 0.000000 -7.125000 0.000000 0.000000 153.360295 52.673513 5.336105 0.000000 0.000000 0.000000 -18.457751 6.396280 41.846550 -35.274016 -45.006031 -15.007131 -33.425350 -30.826006 -57.144571 0.000000 0.000000 0.000000 7.125000 0.000000 0.000000 7.325531 -31.327964 10.114605
0.367227 17.528212 7.480731 4.140440 -140.857713 -8.687821 0.000000 0.000000 0.000000 -16.400816 -2.548007 -4.810259 3.061434 10.793788 31.587604 0.751182 -0.613005 -16.181130 0.673598 -5.246159 -14.612273 0.000000 0.000000 0.000000 21.113781 6.622299 -9.554445 -8.017764 -16.132092 52.626302 -0.805281 14.368188 -17.715580 -1.896859 8.282245 -23.859249 -0.787885 1.785126 14.323406 0.010142 2.146131 0.717273 0.024430 1.028856 -7.307439 0.515193 -2.213226 -2.741141 -0.210719 -3.166491 9.892548 -0.290903 -1.630953 3.670425 0.000000 0.000000 0.000000 13.750364 3.116000 -44.932634 22.865548 -33.927899 7.068832 -174.431550 -25.763856 64.709270 0.000000 0.000000 0.000000 -7.125000 0.000000 0.000000 152.328757 52.944348 5.761066 0.000000 0.000000 0.000000 -18.270473 5.808127 41.365613 -34.070125 -44.136396 -14.161987 -33.372652 -30.276792 -57.184639 0.000000 0.000000 0.000000 7.125000 0.000000 0.000000 7.362276 -31.346512 10.166356
0.251222 17.536207 7.486923 5.289087 -140.329297 -9.536461 0.000000 0.000000 0.000000 -15.654645 -2.013391 -4.915032 3.095702 10.848276 31.769931 0.771845 -1.614163 -16.130261 0.755545 -5.548608 -15.480913 0.000000 0.000000 0.000000 21.351477 5.295203 -10.995074 -8.563848 -16.518550 54.568992 -0.692724 13.622371 -16.487533 -2.027439 8.922708 -25.554134 -1.296992 1.863496 14.333212 0.194402 2.169850 0.958493 0.507023 1.053954 -7.082076 0.648134 -2.309965 -2.576732 -0.204854 -3.304305 9.842194 -0.314134 -1.694734 3.618180 0.000000 0.000000 0.000000 13.355868 3.625756 -38.835643 17.391643 -27.366134 4.268611 -172.631586 -20.964988 64.676772 0.000000 0.000000 0.000000 -7.125000 0.000000 0.000000 153.162412 53.039092 5.630732 0.000000 0.000000 0.000000 -18.334280 4.947114 41.295134 -33.219092 -43.497722 -13.572726 -33.441132 -30.075938 -57.385252 0.000000 0.000000 0.000000 7.125000 0.000000 0.000000 7.429569 -31.542240 10.268458
